<?xml version="1.0" encoding="utf-8"?>
<!-- Generator: Adobe Illustrator 21.0.0, SVG Export Plug-In . SVG Version: 6.00 Build 0)  -->
<svg version="1.1" id="圖層_1" xmlns="http://www.w3.org/2000/svg" xmlns:xlink="http://www.w3.org/1999/xlink" x="0px" y="0px"
	 viewBox="0 0 79.7 79.7" style="enable-background:new 0 0 79.7 79.7;" xml:space="preserve">
<g>
	<path d="M39.3,79.7c0-9.6,0-18.9,0-28.4c-2.4,0-4.7,0-7,0c-1.3,0-2-0.6-2-1.8c-0.1-3-0.1-6-0.1-9c0-1.3,0.8-2,2.1-2
		c1.9,0,3.8,0,5.7,0c0.4,0,0.9,0,1.3-0.1c0-0.8,0-1.5,0-2.2c0.1-3.4-0.1-6.8,0.3-10.1c0.7-6.3,5.2-11.1,11.4-11.9
		c3.8-0.5,7.6-0.4,11.4-0.4c1.2,0,1.8,0.8,1.8,2.2c0,2.3,0,4.6,0,6.8c0,1.7-0.7,2.4-2.5,2.4c-1.7,0-3.5,0-5.2,0
		c-2.8,0.1-4.5,1.7-4.6,4.5c-0.1,2.8,0,5.5,0,8.3c0,0.1,0.1,0.3,0.2,0.5c3.4,0,6.9,0,10.3,0c1.6,0,2.4,0.8,2.2,2.4
		c-0.3,2.9-0.6,5.8-1,8.7c-0.2,1.2-0.8,1.8-2.1,1.8c-2.7,0-5.5,0-8.2,0c-0.4,0-0.9,0-1.3,0c0,9.6,0,18.9,0,28.4
		c0.4,0,0.8,0.1,1.2,0.1c5.2,0,10.4,0,15.6,0c6.1,0,10.8-4.7,10.8-10.8c0-19.3,0-38.6,0-58C79.7,4.7,75,0,68.8,0
		C49.5,0,30.2,0,10.9,0C4.7,0,0,4.7,0,11c0,19.1,0,38.2,0,57.4c0,6.8,4.5,11.3,11.3,11.3c8.9,0,17.7,0,26.6,0
		C38.3,79.7,38.8,79.7,39.3,79.7z"/>
	<path d="M39.3,79.7c-0.5,0-1,0-1.4,0c-8.9,0-17.7,0-26.6,0C4.5,79.7,0,75.1,0,68.3C0,49.2,0,30.1,0,11C0,4.7,4.7,0,10.9,0
		c19.3,0,38.6,0,57.8,0C75,0,79.7,4.7,79.7,10.9c0,19.3,0,38.6,0,58c0,6.1-4.7,10.8-10.8,10.8c-5.2,0-10.4,0-15.6,0
		c-0.4,0-0.7,0-1.2-0.1c0-9.4,0-18.8,0-28.4c0.5,0,0.9,0,1.3,0c2.7,0,5.5,0,8.2,0c1.2,0,1.9-0.6,2.1-1.8c0.4-2.9,0.7-5.8,1-8.7
		c0.2-1.6-0.6-2.4-2.2-2.4c-3.4,0-6.8,0-10.3,0c-0.1-0.2-0.2-0.3-0.2-0.5c0-2.8-0.1-5.5,0-8.3c0.1-2.8,1.7-4.4,4.6-4.5
		c1.7-0.1,3.5,0,5.2,0c1.8,0,2.5-0.7,2.5-2.4c0-2.3,0-4.6,0-6.8c0-1.4-0.6-2.2-1.8-2.2c-3.8,0-7.7-0.1-11.4,0.4
		C44.8,15,40.4,19.7,39.7,26c-0.4,3.3-0.2,6.7-0.3,10.1c0,0.7,0,1.4,0,2.2c-0.5,0-0.9,0.1-1.3,0.1c-1.9,0-3.8,0-5.7,0
		c-1.3,0-2.1,0.7-2.1,2c0,3,0,6,0.1,9c0,1.2,0.7,1.8,2,1.8c2.3,0,4.6,0,7,0C39.3,60.7,39.3,70.1,39.3,79.7z"/>
</g>
</svg>
