<?xml version="1.0" encoding="utf-8"?>
<!-- Generator: Adobe Illustrator 21.0.0, SVG Export Plug-In . SVG Version: 6.00 Build 0)  -->
<svg version="1.1" id="圖層_1" xmlns="http://www.w3.org/2000/svg" xmlns:xlink="http://www.w3.org/1999/xlink" x="0px" y="0px"
	 viewBox="0 0 79.7 79.7" style="enable-background:new 0 0 79.7 79.7;" xml:space="preserve">
<g>
	<path d="M80.8,7.2c0,22.3,0,44.6,0,66.9c0,0.1-0.1,0.2-0.1,0.4c-0.8,3.8-3.6,6.2-7.5,6.2c-21.6,0-43.2,0-64.8,0
		c-0.9,0-1.8-0.2-2.6-0.4c-3.1-1-5-3.8-5-7.4c0-21.4,0-42.8,0-64.2c0-0.3,0-0.5,0-0.8C1,5.1,2.2,3,4.5,1.7C5.4,1.2,6.4,1,7.4,0.6
		c22.3,0,44.6,0,66.9,0c0.1,0.1,0.3,0.1,0.4,0.1c2.9,0.6,4.8,2.3,5.7,5C80.6,6.2,80.7,6.7,80.8,7.2z M41.6,59.1
		c4.4-0.3,9.6-0.6,14.8-0.9c2-0.1,3.9-0.7,5.5-1.9c1.4-0.9,2.6-2.1,2.8-3.8c0.5-3.2,0.9-6.5,1.1-9.7c0.2-4.1-0.1-8.3-0.7-12.4
		c-0.3-1.6-0.6-3.1-1.8-4.3c-1.5-1.5-3.3-2.6-5.4-2.8c-4.4-0.4-8.8-0.8-13.2-0.9c-6.4-0.2-12.8,0.1-19.3,0.7
		C23,23.3,20.8,24,19,25.6c-1,0.8-1.8,1.8-2,3.1c-0.5,3.1-0.9,6.2-1.1,9.4c-0.3,4.3,0,8.6,0.7,12.8c0.2,1.4,0.6,2.8,1.6,4
		c1.1,1.2,2.4,2.2,4,2.6c1.9,0.5,3.8,0.8,5.7,0.9C32.2,58.7,36.5,58.8,41.6,59.1z"/>
	<path d="M34.9,50.1c0-6.4,0-12.6,0-19c5.2,3.2,10.2,6.3,15.4,9.5C45.2,43.8,40.1,46.9,34.9,50.1z"/>
</g>
</svg>
